<?xml version="1.0" standalone="no"?>
<!DOCTYPE svg PUBLIC "-//W3C//DTD SVG 20010904//EN"
 "http://www.w3.org/TR/2001/REC-SVG-20010904/DTD/svg10.dtd">
<svg version="1.0" xmlns="http://www.w3.org/2000/svg"
 width="200.000000pt" height="200.000000pt" viewBox="0 0 200.000000 200.000000"
 preserveAspectRatio="xMidYMid meet">
<metadata>
Created by potrace 1.14, written by Peter Selinger 2001-2017
</metadata>
<g transform="translate(0.000000,200.000000) scale(0.100000,-0.100000)"
fill="#000000" stroke="none">
<path d="M981 1921 c-131 -131 -147 -264 -39 -339 37 -26 39 -29 33 -67 -12
-75 -24 -220 -25 -284 0 -55 -2 -62 -15 -51 -8 7 -15 27 -15 44 0 44 -38 115
-81 149 -33 26 -249 107 -286 107 -35 0 19 -157 77 -223 55 -62 117 -90 199
-91 68 -1 72 -3 108 -54 16 -23 26 -95 40 -281 l6 -85 -44 36 c-32 27 -49 51
-63 90 -26 76 -91 136 -191 176 -44 18 -114 52 -155 77 -41 24 -76 43 -78 41
-1 -2 2 -33 8 -70 24 -149 82 -246 177 -292 49 -25 67 -28 143 -27 l87 1 53
-53 53 -53 -18 -119 c-9 -65 -19 -185 -22 -266 -5 -130 -8 -149 -24 -158 -40
-21 -16 -29 91 -29 108 0 138 10 87 29 -13 5 -28 15 -34 22 -16 21 -36 200
-31 279 5 62 9 73 44 113 35 40 42 45 69 39 17 -4 62 -7 100 -6 54 1 81 7 120
27 53 27 244 211 232 223 -4 4 -54 9 -112 12 -155 7 -266 -20 -333 -82 -26
-23 -62 -87 -62 -109 0 -7 -10 -23 -22 -35 l-23 -21 0 156 1 155 36 34 c33 30
42 33 97 33 119 -1 204 47 280 158 22 32 75 163 68 169 -5 5 -167 -42 -229
-67 -79 -31 -135 -75 -168 -132 -16 -29 -30 -62 -30 -75 0 -14 -11 -29 -32
-42 l-33 -20 -6 38 c-4 20 -9 82 -13 137 l-7 101 37 47 c35 45 39 47 88 47 92
1 169 43 226 122 31 42 74 147 65 156 -6 6 -89 -18 -189 -55 -88 -33 -150 -92
-167 -157 -6 -24 -22 -55 -36 -68 l-26 -23 7 70 c3 39 6 89 6 111 0 34 8 51
39 89 22 26 44 67 50 91 11 44 10 54 -24 174 -8 30 -15 66 -16 80 0 14 -4 34
-8 44 -7 17 -15 12 -70 -43z"/>
</g>
</svg>
